<?xml version="1.0" encoding="UTF-8"?>
<svg width="126px" height="126px" viewBox="0 0 126 126" version="1.1" xmlns="http://www.w3.org/2000/svg" xmlns:xlink="http://www.w3.org/1999/xlink">
    <!-- Generator: Sketch 51.2 (57519) - http://www.bohemiancoding.com/sketch -->
    <title>Instagram</title>
    <desc>Created with Sketch.</desc>
    <defs></defs>
    <g id="Page-1" stroke="none" stroke-width="1" fill="none" fill-rule="evenodd">
        <g id="Instagram" transform="translate(-1.000000, -1.000000)" fill="#000000">
            <path d="M64.0058515,1.5847619 C47.0547365,1.5847619 44.927395,1.65888077 38.2697002,1.9618579 C31.6250088,2.26613535 27.0894542,3.31810314 23.120844,4.86159604 C19.015699,6.45580185 15.5334126,8.5883447 12.0641295,12.0589282 C8.59224569,15.5282113 6.45970284,19.0104977 4.86029571,23.1143424 C3.31290181,27.0842529 2.2596337,31.6211078 1.96055757,38.2631986 C1.66278177,44.9208933 1.5847619,47.0495352 1.5847619,64.0006502 C1.5847619,80.9517652 1.6601811,83.072605 1.9618579,89.7302998 C2.26743568,96.3749912 3.31940347,100.910546 4.86159604,104.879156 C6.45710218,108.984301 8.58964503,112.466587 12.0602285,115.935871 C15.5282113,119.407754 19.0104977,121.545498 23.113042,123.139704 C27.0842529,124.683197 31.6211078,125.735165 38.2644989,126.039442 C44.9221937,126.34242 47.0482348,126.416538 63.9980495,126.416538 C80.9504648,126.416538 83.0713047,126.34242 89.7289994,126.039442 C96.3736909,125.735165 100.914447,124.683197 104.885658,123.139704 C108.989502,121.545498 112.466587,119.407754 115.93457,115.935871 C119.406454,112.466587 121.538997,108.984301 123.138404,104.880456 C124.672795,100.910546 125.726063,96.3736909 126.038142,89.7316001 C126.337218,83.0739054 126.415238,80.9517652 126.415238,64.0006502 C126.415238,47.0495352 126.337218,44.9221937 126.038142,38.2644989 C125.726063,31.6198075 124.672795,27.0842529 123.138404,23.1156427 C121.538997,19.0104977 119.406454,15.5282113 115.93457,12.0589282 C112.462686,8.58704437 108.990803,6.45450152 104.881757,4.86159604 C100.902744,3.31810314 96.3645886,2.26613535 89.7198971,1.9618579 C83.0622024,1.65888077 80.9426628,1.5847619 63.9863465,1.5847619 L64.0058515,1.5847619 Z M58.4066262,12.8326251 C60.0684492,12.8300244 61.9227212,12.8326251 64.0058515,12.8326251 C80.6708937,12.8326251 82.6460965,12.8924403 89.2270717,13.1915165 C95.3126208,13.4697873 98.6154615,14.4866461 100.815622,15.3409636 C103.728363,16.4722516 105.804992,17.8245958 107.988247,20.0091519 C110.172804,22.193708 111.525148,24.2742376 112.659036,27.1869791 C113.513354,29.3845385 114.531513,32.6873792 114.808484,38.7729283 C115.10756,45.3526032 115.172576,47.3291063 115.172576,63.9863465 C115.172576,80.6435867 115.10756,82.6200898 114.808484,89.1997647 C114.530213,95.2853138 113.513354,98.5881546 112.659036,100.785714 C111.527748,103.698455 110.172804,105.772483 107.988247,107.955739 C105.803691,110.140295 103.729663,111.492639 100.815622,112.623927 C98.6180622,113.482146 95.3126208,114.496404 89.2270717,114.774675 C82.6473968,115.073751 80.6708937,115.138768 64.0058515,115.138768 C47.339509,115.138768 45.3643062,115.073751 38.7846313,114.774675 C32.6990822,114.493803 29.3962414,113.476945 27.1947811,112.622627 C24.2820396,111.491339 22.20151,110.138995 20.0169539,107.954439 C17.8323978,105.769883 16.4800536,103.694554 15.3461649,100.780513 C14.4918475,98.5829533 13.4736883,95.2801125 13.1967178,89.1945634 C12.8976417,82.6148885 12.8378264,80.6383854 12.8378264,63.9707426 C12.8378264,47.3030997 12.8976417,45.3369992 13.1967178,38.7573244 C13.4749886,32.6717753 14.4918475,29.3689345 15.3461649,27.1687744 C16.4774529,24.256033 17.8323978,22.1755034 20.0169539,19.9909473 C22.20151,17.8063912 24.2820396,16.454047 27.1947811,15.3201583 C29.3949411,14.4619399 32.6990822,13.4476817 38.7846313,13.1681105 C44.542497,12.9080443 46.773865,12.8300244 58.4066262,12.8170211 L58.4066262,12.8326251 Z M97.3229325,23.1962632 C93.1878799,23.1962632 89.8330259,26.5472162 89.8330259,30.6835691 C89.8330259,34.8186217 93.1878799,38.1734757 97.3229325,38.1734757 C101.457985,38.1734757 104.812839,34.8186217 104.812839,30.6835691 C104.812839,26.5485165 101.457985,23.1936626 97.3229325,23.1936626 L97.3229325,23.1962632 Z M64.0058515,31.9474909 C46.3044455,31.9474909 31.9526922,46.2992442 31.9526922,64.0006502 C31.9526922,81.7020561 46.3044455,96.0473078 64.0058515,96.0473078 C81.7072575,96.0473078 96.0538094,81.7020561 96.0538094,64.0006502 C96.0538094,46.2992442 81.7059571,31.9474909 64.0045512,31.9474909 L64.0058515,31.9474909 Z M64.0058515,43.1953541 C75.4955763,43.1953541 84.8111476,52.5096251 84.8111476,64.0006502 C84.8111476,75.4903749 75.4955763,84.8059463 64.0058515,84.8059463 C52.5148264,84.8059463 43.2005554,75.4903749 43.2005554,64.0006502 C43.2005554,52.5096251 52.5148264,43.1953541 64.0058515,43.1953541 L64.0058515,43.1953541 Z" id="Shape"></path>
        </g>
    </g>
</svg>